# xmcd
#
# Track frame offsets:
#	150
#	17810
#	27933
#	40013
#	55883
#	71081
#	78341
#	90762
#	100563
#	117504
#	126554
#	137157
#	147766
#	160477
#	171959
#	184916
#	198326
#
# Disc length: 2829 seconds
#
# Revision: 0
# Processed by: cddbd v1.5PL3 Copyright (c) Steve Scherf et al.
# Submitted via: dBpowerAMP V4.0
#
DISCID=e90b0b11
DTITLE=Jean-Michel Caradec - Tendres années 70
DYEAR=1900
DGENRE=Celtic
TTITLE0=Complainte pour un enfant
TTITLE1=Toucher ta main
TTITLE2=Petite soeur des rivières
TTITLE3=Chateau des alouettes
TTITLE4=Mords la vie
TTITLE5=Colombine, Melusine et cie
TTITLE6=Ma petite fille de reve
TTITLE7=La colline aux coralines
TTITLE8=ile
TTITLE9=Dans la mer
TTITLE10=Berceuse
TTITLE11=Ma solitaire
TTITLE12=La ballade de Mac Donald
TTITLE13=Une mandarine
TTITLE14=Ma bretagne quand il pleut
TTITLE15=Si je te quitte un jour
TTITLE16=L'hirondelle de mer
EXTD=Jean-Michel Caradec 
EXTT0=
EXTT1=
EXTT2=
EXTT3=
EXTT4=
EXTT5=
EXTT6=
EXTT7=
EXTT8=
EXTT9=
EXTT10=
EXTT11=
EXTT12=
EXTT13=
EXTT14=
EXTT15=
EXTT16=
PLAYORDER=
